<svg xmlns="http://www.w3.org/2000/svg" xmlns:xlink="http://www.w3.org/1999/xlink" id="Layer_1" width="20" height="16" x="0" y="0" enable-background="new 0 0 20 16" version="1.1" viewBox="0 0 20 16" xml:space="preserve"><circle cx="2" cy="2" r="2" fill="#D1D2D1"/><circle cx="2" cy="8" r="2" fill="#D1D2D1"/><circle cx="2" cy="14" r="2" fill="#D1D2D1"/><path fill="#D1D2D1" d="M20,2c0,0.552-0.447,1-1,1H7C6.448,3,6,2.552,6,2l0,0c0-0.552,0.448-1,1-1h12C19.553,1,20,1.447,20,2L20,2z"/><path fill="#D1D2D1" d="M20,8c0,0.552-0.447,1-1,1H7C6.448,9,6,8.552,6,8l0,0c0-0.552,0.448-1,1-1h12C19.553,7,20,7.447,20,8L20,8z"/><path fill="#D1D2D1" d="M20,14c0,0.552-0.447,1-1,1H7c-0.552,0-1-0.448-1-1l0,0c0-0.553,0.448-1,1-1h12C19.553,13,20,13.447,20,14 L20,14z"/></svg>